<svg data-name="Layer 1" viewBox="0 0 64 64" xmlns="http://www.w3.org/2000/svg"><path d="M50.65 1.25h-37.3a1 1 0 0 0 0 2h37.3a1 1 0 0 0 0-2ZM50.65 4.75H15.56a1 1 0 1 0 0 2h35.09a1 1 0 0 0 0-2ZM51.65 9.25a1 1 0 0 0-1-1H17.19a1 1 0 0 0 0 2h33.46a1 1 0 0 0 1-1ZM51 12.75a1 1 0 0 0-1-1H18.32a1 1 0 0 0 0 2H50a1 1 0 0 0 1-1ZM49.23 16.25a1 1 0 0 0-1-1H19a1 1 0 0 0 0 2h29.23a1 1 0 0 0 1-1ZM46.92 19.75a1 1 0 0 0-1-1H19.26a1 1 0 0 0 0 2h26.66a1 1 0 0 0 1-1ZM44.22 23.25a1 1 0 0 0-1-1h-24a1 1 0 0 0 0 2h24a1 1 0 0 0 1-1ZM41.4 26.75a1 1 0 0 0-1-1H18.86a1 1 0 1 0 0 2H40.4a1 1 0 0 0 1-1ZM38.75 30.25a1 1 0 0 0-1-1H18.47a1 1 0 1 0 0 2h19.28a1 1 0 0 0 1-1ZM36.51 33.75a1 1 0 0 0-1-1H18.14a1 1 0 0 0 0 2h17.37a1 1 0 0 0 1-1ZM34.78 37.25a1 1 0 0 0-1-1H18a1 1 0 0 0 0 2h15.78a1 1 0 0 0 1-1ZM32.53 41.75a1 1 0 0 0 0-2H18.16a1 1 0 0 0 0 2ZM18.63 45.25h13a1 1 0 0 0 0-2h-13a1 1 0 1 0 0 2ZM19.44 48.75h11.77a1 1 0 1 0 0-2H19.44a1 1 0 0 0 0 2ZM20.57 52.25H31.1a1 1 0 0 0 0-2H20.57a1 1 0 0 0 0 2ZM22.08 55.75h9.27a1 1 0 0 0 0-2h-9.27a1 1 0 0 0 0 2ZM24 59.25h8a1 1 0 0 0 0-2h-8a1 1 0 0 0 0 2ZM26.4 62.75H33a1 1 0 0 0 0-2h-6.6a1 1 0 0 0 0 2Z" fill="#b9c1c6" class="fill-000000"></path></svg>